<?xml version="1.0" encoding="iso-8859-1"?>
<!-- Generator: Adobe Illustrator 19.0.0, SVG Export Plug-In . SVG Version: 6.00 Build 0)  -->
<svg version="1.1" id="Layer_1" xmlns="http://www.w3.org/2000/svg" xmlns:xlink="http://www.w3.org/1999/xlink" x="0px" y="0px"
	 viewBox="0 0 512 512" style="enable-background:new 0 0 512 512;" xml:space="preserve">
<g>
	<g>
		<path d="M472.595,41.339h-27.441c-13.057,0-25.42-6.315-33.071-16.896C401.012,9.138,383.124,0,364.234,0h-216.47
			c-18.89,0-36.777,9.138-47.849,24.444c-7.65,10.58-20.013,16.896-33.07,16.896H39.403c-18.676,0-33.87,15.195-33.87,33.87v61.575
			c0,5.036,4.082,9.119,9.119,9.119h52.282v29.181H53.56c-5.037,0-9.119,4.083-9.119,9.119v149.55c0,5.036,4.082,9.119,9.119,9.119
			h44.987c5.037,0,9.119-4.083,9.119-9.119v-149.55c0-5.036-4.082-9.119-9.119-9.119H85.172v-29.181h71.736v29.181h-13.374
			c-5.037,0-9.119,4.083-9.119,9.119v195.021c0,5.036,4.082,9.119,9.119,9.119h44.987c5.037,0,9.119-4.083,9.119-9.119V184.202
			c0-5.036-4.082-9.119-9.119-9.119h-13.374v-29.181h71.736v29.181h-13.374c-5.037,0-9.119,4.083-9.119,9.119V429.44
			c0,5.036,4.082,9.119,9.119,9.119h44.987c5.037,0,9.119-4.083,9.119-9.119V184.202c0-5.036-4.082-9.119-9.119-9.119h-13.374
			v-29.181h71.736v29.181H323.48c-5.037,0-9.119,4.083-9.119,9.119v285.817c0,5.036,4.082,9.119,9.119,9.119h44.987
			c5.037,0,9.119-4.083,9.119-9.119V184.202c0-5.036-4.082-9.119-9.119-9.119h-13.374v-29.181h71.736v29.181h-13.374
			c-5.037,0-9.119,4.083-9.119,9.119v318.679c0,5.036,4.082,9.119,9.119,9.119h44.987c5.037,0,9.119-4.083,9.119-9.119V184.202
			c0-5.036-4.082-9.119-9.119-9.119h-13.374v-29.181h52.282c5.037,0,9.119-4.083,9.119-9.119V75.209
			C506.467,56.534,491.272,41.339,472.595,41.339z M89.428,193.321v131.313H62.679V193.321H89.428z M179.401,193.321v176.783
			h-26.749V193.321H179.401z M269.374,193.321v226.999h-26.749V193.321H269.374z M359.348,193.321V460.9h-26.749V193.321H359.348z
			 M449.321,193.321v300.441h-26.749V193.321H449.321z M445.066,127.665V96.661c0-5.036-4.082-9.119-9.119-9.119
			c-5.037,0-9.119,4.083-9.119,9.119v31.004h-71.736V96.661c0-5.036-4.082-9.119-9.119-9.119s-9.119,4.083-9.119,9.119v31.004
			h-71.736V96.661c0-5.036-4.082-9.119-9.119-9.119c-5.037,0-9.119,4.083-9.119,9.119v31.004h-71.736V96.661
			c0-5.036-4.082-9.119-9.119-9.119s-9.119,4.083-9.119,9.119v31.004H85.172V96.661c0-5.036-4.082-9.119-9.119-9.119
			s-9.119,4.083-9.119,9.119v31.004H23.771V75.209c0-8.62,7.013-15.632,15.632-15.632h27.441c18.891,0,36.779-9.138,47.849-24.444
			c7.653-10.579,20.015-16.896,33.071-16.896h216.47c13.056,0,25.419,6.316,33.07,16.896c11.072,15.305,28.959,24.444,47.85,24.444
			h27.441c8.62,0,15.632,7.013,15.632,15.632v52.456H445.066z"/>
	</g>
</g>
<g>
</g>
<g>
</g>
<g>
</g>
<g>
</g>
<g>
</g>
<g>
</g>
<g>
</g>
<g>
</g>
<g>
</g>
<g>
</g>
<g>
</g>
<g>
</g>
<g>
</g>
<g>
</g>
<g>
</g>
</svg>
