<?xml version="1.0" encoding="iso-8859-1"?>
<!-- Generator: Adobe Illustrator 19.0.0, SVG Export Plug-In . SVG Version: 6.00 Build 0)  -->
<svg version="1.1" id="Capa_1" xmlns="http://www.w3.org/2000/svg" xmlns:xlink="http://www.w3.org/1999/xlink" x="0px" y="0px"
	 viewBox="0 0 503.873 503.873" style="enable-background:new 0 0 503.873 503.873;" xml:space="preserve">
<g>
	<g>
		<path d="M479.492,243.81h-89.397v-32.508c0-26.819-21.943-48.762-48.762-48.762H121.905c-17.879,0-32.508-14.629-32.508-32.508
			c0-17.879,14.629-32.508,32.508-32.508h300.698c26.819,0,48.762-21.943,48.762-48.762V16.254h-16.254v32.508
			c0,17.879-14.629,32.508-32.508,32.508H121.905c-26.819,0-48.762,21.943-48.762,48.762c0,26.819,21.943,48.762,48.762,48.762
			h219.429c17.879,0,32.508,14.629,32.508,32.508v32.508H24.381C10.565,243.81,0,254.375,0,268.19v195.048
			c0,13.816,10.565,24.381,24.381,24.381h455.111c13.816,0,24.381-10.565,24.381-24.381V268.19
			C503.873,254.375,493.308,243.81,479.492,243.81z M487.619,463.238c0,4.876-3.251,8.127-8.127,8.127H24.381
			c-4.876,0-8.127-3.251-8.127-8.127V268.19c0-4.876,3.251-8.127,8.127-8.127h455.111c4.876,0,8.127,3.251,8.127,8.127V463.238z"/>
	</g>
</g>
<g>
	<g>
		<path d="M32.508,276.317v48.762H81.27v-48.762H32.508z M65.016,308.825H48.762v-16.254h16.254V308.825z"/>
	</g>
</g>
<g>
	<g>
		<path d="M97.524,276.317v48.762h48.762v-48.762H97.524z M130.032,308.825h-16.254v-16.254h16.254V308.825z"/>
	</g>
</g>
<g>
	<g>
		<path d="M162.54,276.317v48.762h48.762v-48.762H162.54z M195.048,308.825h-16.254v-16.254h16.254V308.825z"/>
	</g>
</g>
<g>
	<g>
		<path d="M227.556,276.317v48.762h48.762v-48.762H227.556z M260.064,308.825H243.81v-16.254h16.254V308.825z"/>
	</g>
</g>
<g>
	<g>
		<path d="M292.571,276.317v48.762h48.762v-48.762H292.571z M325.079,308.825h-16.254v-16.254h16.254V308.825z"/>
	</g>
</g>
<g>
	<g>
		<path d="M357.587,276.317v48.762h48.762v-48.762H357.587z M390.095,308.825h-16.254v-16.254h16.254V308.825z"/>
	</g>
</g>
<g>
	<g>
		<path d="M422.603,276.317v48.762h48.762v-48.762H422.603z M455.111,308.825h-16.254v-16.254h16.254V308.825z"/>
	</g>
</g>
<g>
	<g>
		<path d="M32.508,341.333v48.762h81.27v-48.762H32.508z M97.524,373.841H48.762v-16.254h48.762V373.841z"/>
	</g>
</g>
<g>
	<g>
		<path d="M130.032,341.333v48.762h48.762v-48.762H130.032z M162.54,373.841h-16.254v-16.254h16.254V373.841z"/>
	</g>
</g>
<g>
	<g>
		<path d="M195.048,341.333v48.762h48.762v-48.762H195.048z M227.556,373.841h-16.254v-16.254h16.254V373.841z"/>
	</g>
</g>
<g>
	<g>
		<path d="M260.064,341.333v48.762h48.762v-48.762H260.064z M292.571,373.841h-16.254v-16.254h16.254V373.841z"/>
	</g>
</g>
<g>
	<g>
		<path d="M325.079,341.333v48.762h48.762v-48.762H325.079z M357.587,373.841h-16.254v-16.254h16.254V373.841z"/>
	</g>
</g>
<g>
	<g>
		<path d="M390.095,341.333v48.762h81.27v-48.762H390.095z M455.111,373.841h-48.762v-16.254h48.762V373.841z"/>
	</g>
</g>
<g>
	<g>
		<path d="M32.508,406.349v48.762H81.27v-48.762H32.508z M65.016,438.857H48.762v-16.254h16.254V438.857z"/>
	</g>
</g>
<g>
	<g>
		<path d="M97.524,406.349v48.762h48.762v-48.762H97.524z M130.032,438.857h-16.254v-16.254h16.254V438.857z"/>
	</g>
</g>
<g>
	<g>
		<path d="M162.54,406.349v48.762h178.794v-48.762H162.54z M325.079,438.857H178.794v-16.254h146.286V438.857z"/>
	</g>
</g>
<g>
	<g>
		<path d="M422.603,406.349v48.762h48.762v-48.762H422.603z M455.111,438.857h-16.254v-16.254h16.254V438.857z"/>
	</g>
</g>
<g>
	<g>
		<path d="M357.587,406.349v48.762h48.762v-48.762H357.587z M390.095,438.857h-16.254v-16.254h16.254V438.857z"/>
	</g>
</g>
<g>
</g>
<g>
</g>
<g>
</g>
<g>
</g>
<g>
</g>
<g>
</g>
<g>
</g>
<g>
</g>
<g>
</g>
<g>
</g>
<g>
</g>
<g>
</g>
<g>
</g>
<g>
</g>
<g>
</g>
</svg>
