<?xml version="1.0" encoding="iso-8859-1"?>
<!-- Generator: Adobe Illustrator 19.0.0, SVG Export Plug-In . SVG Version: 6.00 Build 0)  -->
<svg version="1.1" id="Capa_1" xmlns="http://www.w3.org/2000/svg" xmlns:xlink="http://www.w3.org/1999/xlink" x="0px" y="0px"
	 viewBox="0 0 511.998 511.998" style="enable-background:new 0 0 511.998 511.998;" xml:space="preserve">
<g>
	<g>
		<path d="M416.056,223.942c0.017-0.972,0.01,0.75,0.01-27.191c0-47.522-149.228-66.148-256.516-52.517
			c-4.119,0.521-7.036,4.28-6.515,8.399c0.521,4.118,4.29,7.045,8.399,6.515c63.765-8.077,150.325-5.082,204.219,13.179
			c26.089,8.831,35.379,18.411,35.379,24.425c0,5.283-6.655,11.636-18.261,17.439c-19.083,9.55-49.882,17.048-86.715,21.116
			c-115.37,12.67-231.66-13.112-231.66-38.557c0-6.585,10.704-16.918,40.742-26.149c8.158-2.506,17.299-4.781,27.161-6.755
			c4.069-0.812,6.705-4.771,5.893-8.839c-0.822-4.079-4.781-6.715-8.85-5.894c-27.7,5.524-79.98,19.485-79.98,47.637
			c1.105,8.637-10.068,121.356,55.234,205.021c-30.522,5.222-98.14,19.275-98.14,50.142c0,58.736,253.298,76.141,385.817,44.52
			c46.695-11.134,70.378-26.119,70.378-44.52c0-31.5-70.31-45.528-101.358-50.694c3.097-3.998,6.094-8.188,8.97-12.548
			c66.909-3.463,115.148-32.904,132.718-98.12C519.247,230.139,454.15,191.615,416.056,223.942z M488.469,286.633
			c-5.302,19.675-20.917,77.565-108.664,86.255c0.882-1.584,1.744-3.187,2.596-4.811c1.924-3.678,0.511-8.219-3.167-10.143
			c-3.678-1.934-8.219-0.511-10.153,3.167c-23.196,44.32-62.785,83.296-112.994,83.296h-46.745
			c-14.623,0-29.135-3.407-43.137-10.143c-3.738-1.804-8.228-0.23-10.033,3.508c-1.794,3.748-0.22,8.24,3.518,10.034
			c21.702,10.451,39.174,11.86,57.65,11.741h38.746c36.454,0,69.001-18.365,93.781-44.896c13.961,2.074,27.011,4.55,38.917,7.387
			c46.444,11.075,58.832,24.003,58.832,29.886c0,5.893-12.388,18.822-58.832,29.897c-85.073,20.283-223.341,20.295-308.463,0
			c-46.434-11.075-58.832-24.004-58.832-29.897c0-5.883,12.398-18.812,58.832-29.886c10.995-2.626,22.962-4.931,35.72-6.896
			c5.362,5.693,10.995,10.924,16.888,15.654c1.383,1.112,3.047,1.654,4.701,1.654c7.065,0,10.244-8.933,4.711-13.37
			c-81.047-65.274-77.465-195.257-77.945-198.305c60.866,43.951,276.191,43.422,336.636,0.01
			c-0.251,2.891,2.101,56.206-19.965,113.715c-1.483,3.879,0.451,8.229,4.32,9.712c3.894,1.488,8.233-0.454,9.712-4.32
			c10.283-26.79,16.928-56.348,19.614-86.815c4.731-18.341,23.453-29.506,41.854-24.896
			C479.192,233.824,496.629,256.412,488.469,286.633z"/>
	</g>
</g>
<g>
	<g>
		<path d="M193.102,63.847c0-10.294,9.849-11.911,9.849-28.212c0-4.152-3.366-7.517-7.517-7.517c-4.151,0-7.517,3.365-7.517,7.517
			c0,10.293-9.848,11.91-9.849,28.212c0,9.417,3.629,14.615,6.278,18.41c2.227,3.189,3.571,5.114,3.571,9.802
			c0,10.292-9.848,11.909-9.849,28.209c0.001,4.151,3.366,7.517,7.517,7.517c4.151,0,7.517-3.365,7.517-7.517
			c0-10.281,9.849-11.909,9.849-28.209c0-9.417-3.628-14.614-6.278-18.408C194.446,70.461,193.102,68.536,193.102,63.847z"/>
	</g>
</g>
<g>
	<g>
		<path d="M281.084,73.651c-2.227-3.19-3.571-5.115-3.571-9.804c0-10.294,9.848-11.911,9.848-28.212
			c0-4.152-3.365-7.517-7.517-7.517c-4.152,0-7.517,3.365-7.517,7.517c0,10.293-9.848,11.91-9.848,28.212
			c0,9.417,3.628,14.615,6.278,18.409c2.227,3.19,3.571,5.115,3.571,9.803c0,10.292-9.848,11.909-9.848,28.209
			c0,4.152,3.365,7.517,7.517,7.517c4.152,0,7.517-3.365,7.517-7.517c0-10.292,9.848-11.909,9.848-28.209
			C287.362,82.643,283.734,77.446,281.084,73.651z"/>
	</g>
</g>
<g>
	<g>
		<path d="M245.158,7.517c0-4.152-3.366-7.517-7.517-7.517c-4.151,0-7.517,3.365-7.517,7.517c0,15.637-9.849,16.823-9.849,37.241
			c0,20.156,9.849,21.872,9.849,37.242c0,15.492-9.849,16.903-9.849,37.237c0,4.151,3.366,7.517,7.517,7.517
			c4.151,0,7.517-3.365,7.517-7.517c0-15.636,9.849-16.821,9.849-37.237c0-20.157-9.849-21.873-9.849-37.242
			C235.308,29.118,245.158,27.937,245.158,7.517z"/>
	</g>
</g>
<g>
</g>
<g>
</g>
<g>
</g>
<g>
</g>
<g>
</g>
<g>
</g>
<g>
</g>
<g>
</g>
<g>
</g>
<g>
</g>
<g>
</g>
<g>
</g>
<g>
</g>
<g>
</g>
<g>
</g>
</svg>
