<?xml version="1.0" encoding="iso-8859-1"?>
<!-- Generator: Adobe Illustrator 19.0.0, SVG Export Plug-In . SVG Version: 6.00 Build 0)  -->
<svg version="1.1" id="Capa_1" xmlns="http://www.w3.org/2000/svg" xmlns:xlink="http://www.w3.org/1999/xlink" x="0px" y="0px"
	 viewBox="0 0 512.004 512.004" style="enable-background:new 0 0 512.004 512.004;" xml:space="preserve">
<g>
	<g>
		<g>
			<path d="M442.669,396.395V128c0-53.045-32.501-62.101-123.051-63.659l14.933-37.429c28.651,4.757,43.051,11.488,44.117,15.755
				c0,5.891,4.776,10.667,10.667,10.667s10.667-4.776,10.667-10.667C400.002,5.547,309.474,0,255.469,0
				c-43.115,0-143.467,4.16-143.467,42.667c0,5.891,4.776,10.667,10.667,10.667s10.667-4.776,10.667-10.667
				c1.067-4.267,15.36-11.072,44.053-15.84l14.997,37.483C101.869,65.899,69.335,74.955,69.335,128v268.395
				c0,32,24,63.509,51.509,71.157l-36.267,25.003c-4.848,3.349-6.064,9.994-2.715,14.843c3.349,4.848,9.994,6.064,14.843,2.715
				l59.136-40.779h200.32l59.115,40.779c4.848,3.349,11.494,2.134,14.843-2.715c3.349-4.848,2.134-11.494-2.715-14.843
				l-37.227-25.675C428.365,458.091,442.669,426.411,442.669,396.395z M255.469,21.333c19.12-0.075,38.231,0.826,57.259,2.699
				l-16,40.053C284.077,64,270.658,64,256.002,64c-14.656,0-28.075,0-40.736,0.085l-16.043-40.107
				C217.915,22.145,236.687,21.262,255.469,21.333z M421.335,396.395c0,19.275-6.933,51.605-53.333,51.605H133.335
				c-18.624,0-42.667-25.024-42.667-51.605V128c0-38.677,15.445-42.667,165.333-42.667S421.335,89.323,421.335,128V396.395z"/>
			<path d="M146.861,309.333h217.408c18.357,0,35.701-16.693,35.701-34.357V156.352C400.002,137.739,382.039,128,364.269,128
				H146.861c-20.203,0-34.859,11.925-34.859,28.352v118.624C112.002,292.64,128.941,309.333,146.861,309.333z M133.335,156.352
				c0-5.109,8.288-7.019,13.525-7.019h217.408c6.016,0,14.368,2.443,14.368,7.019l0.032,118.624c0,5.717-8,13.024-14.4,13.024
				H146.861c-6.187,0-13.525-7.061-13.525-13.024V156.352z"/>
			<path d="M357.335,341.333c-23.564,0-42.667,19.102-42.667,42.667c0,23.564,19.103,42.667,42.667,42.667
				s42.667-19.102,42.667-42.667C400.002,360.436,380.899,341.333,357.335,341.333z M357.335,405.333
				c-11.782,0-21.333-9.551-21.333-21.333c0-11.782,9.551-21.333,21.333-21.333c11.782,0,21.333,9.551,21.333,21.333
				C378.669,395.782,369.117,405.333,357.335,405.333z"/>
			<path d="M154.669,341.333c-23.564,0-42.667,19.102-42.667,42.667c0,23.564,19.103,42.667,42.667,42.667
				s42.667-19.102,42.667-42.667C197.335,360.436,178.233,341.333,154.669,341.333z M154.669,405.333
				c-11.782,0-21.333-9.551-21.333-21.333c0-11.782,9.551-21.333,21.333-21.333s21.333,9.551,21.333,21.333
				C176.002,395.782,166.451,405.333,154.669,405.333z"/>
		</g>
	</g>
</g>
<g>
</g>
<g>
</g>
<g>
</g>
<g>
</g>
<g>
</g>
<g>
</g>
<g>
</g>
<g>
</g>
<g>
</g>
<g>
</g>
<g>
</g>
<g>
</g>
<g>
</g>
<g>
</g>
<g>
</g>
</svg>
