<?xml version="1.0" encoding="iso-8859-1"?>
<!-- Generator: Adobe Illustrator 17.1.0, SVG Export Plug-In . SVG Version: 6.00 Build 0)  -->
<!DOCTYPE svg PUBLIC "-//W3C//DTD SVG 1.1//EN" "http://www.w3.org/Graphics/SVG/1.1/DTD/svg11.dtd">
<svg version="1.1" id="Capa_1" xmlns="http://www.w3.org/2000/svg" xmlns:xlink="http://www.w3.org/1999/xlink" x="0px" y="0px"
	 viewBox="0 0 203.938 203.938" style="enable-background:new 0 0 203.938 203.938;" xml:space="preserve">
<path d="M139.33,203.938c-1.657,0-3-1.343-3-3v-10.634h-14.686v10.634c0,1.657-1.343,3-3,3s-3-1.343-3-3v-10.634h-4.992
	c-1.657,0-3-1.343-3-3s1.343-3,3-3h4.992v-15.626h-4.992c-1.657,0-3-1.343-3-3s1.343-3,3-3h4.992v-15.627h-4.992
	c-1.657,0-3-1.343-3-3s1.343-3,3-3h4.992v-15.626h-4.992c-1.657,0-3-1.343-3-3s1.343-3,3-3h4.992v-14.753l-5.907-0.207
	c-1.656-0.058-2.951-1.447-2.893-3.104c0.058-1.655,1.462-2.94,3.103-2.893l5.697,0.2v-7.473c0-2.327,0.094-4.629,0.28-6.909
	l-5.504-0.764c-1.641-0.228-2.787-1.743-2.56-3.384c0.228-1.641,1.749-2.794,3.384-2.56l5.379,0.746
	c0.779-5.067,2.01-9.982,3.652-14.713l-4.898-1.775c-1.558-0.564-2.363-2.285-1.798-3.843c0.564-1.558,2.286-2.36,3.842-1.798
	l5.024,1.82c2.302-5.359,5.146-10.437,8.459-15.157l-3.874-2.793c-1.344-0.969-1.648-2.844-0.679-4.188
	c0.97-1.343,2.845-1.647,4.188-0.679l3.984,2.873c3.716-4.57,7.9-8.745,12.478-12.45l-3.067-4.195
	c-0.978-1.337-0.687-3.214,0.65-4.192c1.339-0.977,3.214-0.687,4.192,0.651l3.02,4.128c5.184-3.621,10.792-6.676,16.733-9.071
	L167.2,8.47c-0.472-1.589,0.432-3.259,2.021-3.731c1.59-0.469,3.259,0.433,3.73,2.021l1.23,4.138
	c5.157-1.66,10.525-2.837,16.059-3.476l-0.439-4.104c-0.176-1.647,1.017-3.126,2.664-3.303c1.64-0.159,3.125,1.016,3.302,2.664
	l0.457,4.267c1.244-0.055,2.498-0.082,3.755-0.082c1.657,0,3,1.343,3,3s-1.343,3-3,3c-1.044,0-2.081,0.021-3.115,0.062l1.838,17.188
	c0.424-0.009,0.851-0.013,1.277-0.013c1.657,0,3,1.343,3,3s-1.343,3-3,3c-0.211,0-0.425,0.001-0.636,0.004l0.475,4.438
	c0.176,1.647-1.017,3.126-2.664,3.303c-1.643,0.158-3.126-1.016-3.302-2.664l-0.503-4.702c-3.742,0.43-7.375,1.221-10.865,2.334
	l1.322,4.447c0.472,1.589-0.432,3.259-2.021,3.731c-1.591,0.47-3.259-0.433-3.73-2.021l-1.198-4.029
	c-2.807,1.233-5.497,2.685-8.049,4.331l2.451,3.352c0.978,1.337,0.687,3.214-0.65,4.192c-1.338,0.976-3.215,0.687-4.192-0.651
	l-2.474-3.382c-2.259,1.813-4.381,3.796-6.343,5.925l3.833,2.763c1.344,0.969,1.648,2.844,0.679,4.188
	c-0.969,1.343-2.844,1.648-4.188,0.679l-4.166-3.004c-1.919,2.571-3.628,5.307-5.104,8.182l4.572,1.657
	c1.558,0.564,2.363,2.285,1.798,3.843c-0.564,1.558-2.284,2.36-3.843,1.798l-4.991-1.809c-1.126,2.911-2.023,5.938-2.667,9.054
	l5.443,0.755c1.641,0.228,2.787,1.743,2.56,3.384c-0.228,1.641-1.751,2.782-3.384,2.56l-5.525-0.767
	c-0.188,1.894-0.285,3.814-0.285,5.757v5.857l5.674,0.199c1.656,0.058,2.951,1.447,2.893,3.104
	c-0.058,1.655-1.457,2.943-3.103,2.893l-5.464-0.191v13.816h6.403c1.657,0,3,1.343,3,3s-1.343,3-3,3h-6.403v15.626h6.403
	c1.657,0,3,1.343,3,3s-1.343,3-3,3h-6.403v15.627h6.403c1.657,0,3,1.343,3,3s-1.343,3-3,3h-6.403v15.626h6.403c1.657,0,3,1.343,3,3
	s-1.343,3-3,3h-6.403v10.634C142.33,202.595,140.987,203.938,139.33,203.938z M121.644,184.304h14.686v-15.626h-14.686V184.304z
	 M121.644,162.678h14.686v-15.627h-14.686V162.678z M121.644,141.052h14.686v-15.626h-14.686V141.052z M121.644,119.426h14.686
	v-14.027l-14.686-0.515V119.426z M121.644,98.88l14.686,0.516v-5.647c0-2.222,0.115-4.419,0.338-6.582l-14.79-2.052
	c-0.155,2.007-0.234,4.037-0.234,6.083V98.88z M122.569,79.152l14.997,2.081c0.708-3.539,1.71-6.971,2.981-10.272l-14.629-5.302
	C124.417,69.998,123.288,74.508,122.569,79.152z M128.097,60.067l14.873,5.39c1.691-3.394,3.674-6.612,5.919-9.63l-13.119-9.458
	C132.778,50.643,130.2,55.229,128.097,60.067z M139.398,41.588l13.303,9.591c2.361-2.62,4.935-5.042,7.696-7.24l-9.849-13.468
	C146.472,33.795,142.734,37.521,139.398,41.588z M155.339,26.858l9.922,13.566c3.113-2.034,6.415-3.804,9.873-5.274l-4.885-16.428
	C164.966,20.898,159.971,23.635,155.339,26.858z M175.892,16.65l4.88,16.411c3.835-1.217,7.829-2.079,11.938-2.549l-1.832-17.124
	C185.714,13.988,180.703,15.093,175.892,16.65z M85.293,202.913c-1.657,0-3-1.343-3-3v-9.224H67.608v9.224c0,1.657-1.343,3-3,3
	s-3-1.343-3-3v-9.224h-6.403c-1.657,0-3-1.343-3-3s1.343-3,3-3h6.403v-15.626h-6.403c-1.657,0-3-1.343-3-3s1.343-3,3-3h6.403
	v-15.627h-6.403c-1.657,0-3-1.343-3-3s1.343-3,3-3h6.403v-4.052c0-2.279-0.133-4.53-0.392-6.741l-5.418,0.752
	c-1.64,0.231-3.156-0.919-3.384-2.56s0.918-3.156,2.56-3.384l5.234-0.726c-0.663-2.948-1.552-5.81-2.648-8.568l-4.903,2.013
	c-1.532,0.631-3.285-0.104-3.915-1.636c-0.629-1.533,0.104-3.286,1.636-3.915l4.674-1.919c-1.421-2.711-3.051-5.293-4.87-7.729
	l-4.166,3.004c-1.344,0.971-3.218,0.664-4.188-0.679c-0.969-1.345-0.665-3.22,0.679-4.188l3.833-2.764
	c-1.962-2.128-4.084-4.11-6.343-5.924l-2.475,3.383c-0.977,1.339-2.854,1.63-4.192,0.651c-1.337-0.979-1.628-2.855-0.65-4.192
	l2.451-3.353c-2.553-1.646-5.242-3.098-8.049-4.331l-1.198,4.029c-0.472,1.588-2.14,2.487-3.73,2.021
	c-1.588-0.473-2.493-2.143-2.021-3.731l1.322-4.447c-3.488-1.113-7.125-1.903-10.865-2.334l-0.503,4.703
	c-0.176,1.648-1.659,2.834-3.302,2.664c-1.647-0.177-2.84-1.655-2.664-3.303l0.475-4.439c-0.211-0.003-0.425-0.004-0.636-0.004
	c-1.657,0-3-1.343-3-3s1.343-3,3-3c0.426,0,0.853,0.004,1.277,0.013l1.838-17.188c-1.034-0.041-2.071-0.062-3.115-0.062
	c-1.657,0-3-1.343-3-3s1.343-3,3-3c1.257,0,2.511,0.027,3.755,0.083l0.457-4.269c0.176-1.647,1.662-2.827,3.302-2.664
	c1.647,0.177,2.84,1.655,2.664,3.303l-0.439,4.105c5.533,0.639,10.901,1.815,16.058,3.476l1.231-4.139
	c0.472-1.588,2.14-2.489,3.73-2.021c1.588,0.473,2.493,2.143,2.021,3.731l-1.331,4.475c5.941,2.396,11.549,5.45,16.732,9.071
	l3.02-4.129c0.978-1.339,2.854-1.63,4.192-0.651c1.337,0.979,1.628,2.855,0.65,4.192l-3.068,4.195
	c4.578,3.706,8.762,7.881,12.478,12.45l3.984-2.873c1.345-0.969,3.219-0.664,4.188,0.679c0.969,1.345,0.665,3.22-0.679,4.188
	l-3.874,2.793c2.996,4.269,5.609,8.83,7.784,13.627l4.79-1.967c1.532-0.631,3.285,0.104,3.915,1.636
	c0.629,1.533-0.104,3.286-1.636,3.915l-4.788,1.965c1.815,4.909,3.184,10.026,4.061,15.313l5.536-0.769
	c1.638-0.229,3.155,0.919,3.384,2.56c0.228,1.641-0.918,3.156-2.56,3.384l-5.591,0.775c0.243,2.601,0.367,5.234,0.367,7.896v6.603
	h4.993c1.657,0,3,1.343,3,3s-1.343,3-3,3h-4.993v15.627h4.993c1.657,0,3,1.343,3,3s-1.343,3-3,3h-4.993v15.626h4.993
	c1.657,0,3,1.343,3,3s-1.343,3-3,3h-4.993v9.224C88.293,201.57,86.95,202.913,85.293,202.913z M67.608,184.689h14.686v-15.626
	H67.608V184.689z M67.608,163.063h14.686v-15.627H67.608V163.063z M67.608,141.436h14.686v-6.603c0-2.383-0.107-4.741-0.316-7.071
	l-14.816,2.056c0.295,2.482,0.447,5.007,0.447,7.566V141.436z M63.11,113.879c1.284,3.22,2.313,6.569,3.06,10.02l15.041-2.087
	c-0.803-4.778-2.04-9.411-3.669-13.857L63.11,113.879z M55.048,99.464c2.095,2.814,3.962,5.807,5.576,8.95l14.638-6.01
	c-1.992-4.36-4.372-8.509-7.096-12.398L55.048,99.464z M43.542,87.575c2.761,2.198,5.334,4.62,7.695,7.239l13.302-9.59
	c-3.336-4.066-7.073-7.792-11.148-11.116L43.542,87.575z M28.805,78.787c3.458,1.471,6.759,3.24,9.873,5.274l9.921-13.565
	c-4.631-3.224-9.626-5.96-14.91-8.136L28.805,78.787z M11.228,74.149c4.109,0.47,8.103,1.332,11.938,2.549l4.88-16.41
	c-4.811-1.558-9.822-2.662-14.986-3.262L11.228,74.149z"/>
<g>
</g>
<g>
</g>
<g>
</g>
<g>
</g>
<g>
</g>
<g>
</g>
<g>
</g>
<g>
</g>
<g>
</g>
<g>
</g>
<g>
</g>
<g>
</g>
<g>
</g>
<g>
</g>
<g>
</g>
</svg>
