<?xml version="1.0" encoding="iso-8859-1"?>
<!-- Generator: Adobe Illustrator 19.0.0, SVG Export Plug-In . SVG Version: 6.00 Build 0)  -->
<svg version="1.1" id="Capa_1" xmlns="http://www.w3.org/2000/svg" xmlns:xlink="http://www.w3.org/1999/xlink" x="0px" y="0px"
	 viewBox="0 0 511.999 511.999" style="enable-background:new 0 0 511.999 511.999;" xml:space="preserve">
<g>
	<g>
		<g>
			<path d="M58.301,243.896c-4.142,0-7.5,3.358-7.5,7.5c0,4.142,3.358,7.5,7.5,7.5h252.838c4.142,0,7.5-3.358,7.5-7.5
				s-3.358-7.5-7.5-7.5H58.301z"/>
			<path d="M56.149,122.506c2.506,0.913,5.125,1.688,7.785,2.306c4.035,0.938,8.065-1.573,9.002-5.608
				c0.938-4.035-1.573-8.065-5.608-9.002c-2.072-0.482-4.107-1.084-6.048-1.791c-24.226-8.818-39.066-35.199-45.756-50.139
				c-1.267-2.83-0.074-6.106,2.715-7.459C32.967,43.669,61.295,33,85.519,41.816c21.931,7.983,36.17,30.357,43.634,45.609
				L75.966,68.066c-3.891-1.417-8.196,0.59-9.613,4.483c-1.417,3.892,0.59,8.196,4.483,9.613l53.183,19.357
				c-8.082,3.582-18.908,7.503-30.584,9.265c-4.096,0.618-6.915,4.44-6.296,8.536c0.561,3.716,3.759,6.382,7.407,6.381
				c0.372,0,0.75-0.028,1.129-0.085c15.891-2.399,30.216-8.233,39.434-12.705c2.578-1.251,4.775-2.958,6.55-4.971l25.641,9.333
				c0.847,0.308,1.712,0.454,2.564,0.454c3.064,0,5.94-1.892,7.048-4.937c1.416-3.892-0.59-8.196-4.483-9.613l-25.64-9.333
				c-0.065-2.683-0.652-5.403-1.822-8.018c-7.66-17.104-24.9-47.398-54.317-58.105c-29.416-10.705-62.094,1.418-78.957,9.597
				C1.565,42.231-2.765,54.128,1.835,64.402C9.493,81.507,26.734,111.799,56.149,122.506z"/>
			<path d="M144.84,303.189H32.543c-4.142,0-7.5,3.358-7.5,7.5c0,4.142,3.358,7.5,7.5,7.5H144.84c4.142,0,7.5-3.358,7.5-7.5
				C152.339,306.546,148.982,303.189,144.84,303.189z"/>
			<path d="M258.065,199.603c38.559,0,69.93-31.371,69.93-69.93c0-38.559-31.371-69.93-69.93-69.93c-4.142,0-7.5,3.358-7.5,7.5
				c0,4.142,3.358,7.5,7.5,7.5c30.289,0,54.931,24.641,54.931,54.931c0,30.289-24.642,54.931-54.931,54.931H27.049
				c-4.142,0-7.5,3.358-7.5,7.5s3.358,7.5,7.5,7.5H258.065z"/>
			<path d="M511.981,114.583c-0.172-11.256-9.125-20.208-20.38-20.38c-11.812-0.179-29.437,0.861-46.366,6.852
				c-3.905,1.382-5.95,5.667-4.568,9.572c1.382,3.905,5.667,5.951,9.572,4.568c14.83-5.249,30.549-6.159,41.132-5.995
				c3.1,0.047,5.565,2.513,5.613,5.613c0.251,16.368-2.05,46.549-20.279,64.779c-16.502,16.501-42.803,19.95-59.777,20.27
				l40.023-40.023c2.929-2.929,2.929-7.678,0-10.607c-2.928-2.929-7.677-2.929-10.606,0l-40.023,40.023
				c0.319-16.977,3.768-43.273,20.27-59.777c2.929-2.929,2.929-7.678,0-10.606c-2.929-2.929-7.678-2.929-10.607,0
				c-22.135,22.136-24.958,56.877-24.671,75.615c0.044,2.865,0.662,5.578,1.737,8.038l-19.295,19.295
				c-2.929,2.929-2.929,7.678,0,10.606c1.464,1.465,3.384,2.197,5.303,2.197s3.839-0.732,5.303-2.197l19.294-19.294
				c2.46,1.075,5.173,1.693,8.038,1.737c0.78,0.012,1.587,0.019,2.421,0.019c19.188,0,51.981-3.477,73.194-24.689
				C509.445,168.062,512.269,133.321,511.981,114.583z"/>
			<path d="M346.939,456.389c1.075-2.46,1.693-5.172,1.737-8.037c0.288-18.738-2.535-53.48-24.671-75.615
				c-22.135-22.136-56.871-24.963-75.615-24.671c-11.255,0.172-20.208,9.125-20.381,20.38c-0.232,15.149,1.523,37.275,11.201,56.65
				c1.851,3.705,6.353,5.209,10.061,3.358c3.705-1.851,5.209-6.355,3.358-10.061c-8.765-17.547-9.791-38.681-9.622-49.717
				c0.048-3.1,2.513-5.566,5.614-5.613c16.368-0.255,46.549,2.05,64.778,20.279c16.503,16.503,19.951,42.799,20.27,59.777
				l-40.023-40.023c-2.929-2.929-7.678-2.929-10.606,0c-2.929,2.929-2.929,7.678,0,10.607l40.021,40.021
				c-13.791-0.269-35.066-2.67-51.343-13.422c-3.454-2.282-8.108-1.333-10.392,2.124c-2.283,3.456-1.332,8.108,2.124,10.392
				c20.669,13.654,47.14,15.934,62.492,15.934c0.816,0,1.602-0.006,2.352-0.018c2.865-0.044,5.578-0.662,8.038-1.737l19.295,19.295
				c1.464,1.464,3.384,2.197,5.303,2.197s3.839-0.732,5.303-2.197c2.929-2.929,2.929-7.678,0-10.606L346.939,456.389z"/>
			<path d="M407.842,303.189H220.386c-4.142,0-7.5,3.358-7.5,7.5c0,4.142,3.358,7.5,7.5,7.5h187.456
				c26.249,0,47.604,21.355,47.604,47.605c0,26.249-21.355,47.604-47.604,47.604c-4.142,0-7.5,3.358-7.5,7.5s3.358,7.5,7.5,7.5
				c34.52,0,62.603-28.084,62.603-62.603C470.445,331.272,442.362,303.189,407.842,303.189z"/>
		</g>
	</g>
</g>
<g>
</g>
<g>
</g>
<g>
</g>
<g>
</g>
<g>
</g>
<g>
</g>
<g>
</g>
<g>
</g>
<g>
</g>
<g>
</g>
<g>
</g>
<g>
</g>
<g>
</g>
<g>
</g>
<g>
</g>
</svg>
