<?xml version="1.0" encoding="iso-8859-1"?>
<!-- Generator: Adobe Illustrator 17.1.0, SVG Export Plug-In . SVG Version: 6.00 Build 0)  -->
<!DOCTYPE svg PUBLIC "-//W3C//DTD SVG 1.1//EN" "http://www.w3.org/Graphics/SVG/1.1/DTD/svg11.dtd">
<svg version="1.1" id="Capa_1" xmlns="http://www.w3.org/2000/svg" xmlns:xlink="http://www.w3.org/1999/xlink" x="0px" y="0px"
	 viewBox="0 0 435.717 435.717" style="enable-background:new 0 0 435.717 435.717;" xml:space="preserve">
<g>
	<path d="M304.214,84.552c-11.433,0-20.735,9.302-20.735,20.735s9.302,20.735,20.735,20.735s20.735-9.302,20.735-20.735
		S315.647,84.552,304.214,84.552z M304.214,111.022c-3.162,0-5.735-2.573-5.735-5.735s2.573-5.735,5.735-5.735
		s5.735,2.573,5.735,5.735S307.376,111.022,304.214,111.022z"/>
	<path d="M403.504,82.801c-21.391-28.65-50.84-44.428-82.922-44.428c-36.148,0-66.44,25.477-73.909,59.414H213.85
		c-3.034,0-5.768,1.827-6.929,4.63c-1.161,2.803-0.519,6.028,1.626,8.173l13.235,13.235c1.464,1.464,3.384,2.197,5.303,2.197
		s3.839-0.732,5.303-2.197c2.929-2.929,2.929-7.678,0-10.606l-0.432-0.432h12.967c-0.007,0.427-0.032,0.849-0.032,1.277
		c0,8.187,1.319,16.199,3.885,23.893L2.197,384.541c-2.929,2.929-2.929,7.678,0,10.606c1.464,1.464,3.384,2.197,5.303,2.197
		s3.839-0.732,5.303-2.197l117.771-117.774c2.14,3.378,4.385,6.67,6.744,9.859l-97.308,97.308c-2.929,2.929-2.929,7.678,0,10.606
		c1.464,1.464,3.384,2.197,5.303,2.197s3.839-0.732,5.303-2.197l96.22-96.22c31.027,34.812,75.785,55.419,123.506,55.419
		c91.188,0,165.374-74.187,165.374-165.374C435.717,148.329,424.276,110.624,403.504,82.801z M270.343,339.346
		c-45.969,0-88.924-21.021-117.205-56.161c-0.027-0.034-0.055-0.067-0.083-0.1c-4.201-5.229-8.077-10.771-11.59-16.602
		l33.128-33.128c17.135,36.961,54.258,61.077,95.75,61.077c35.641,0,68.629-17.798,88.244-47.61
		c2.276-3.46,1.317-8.111-2.144-10.388c-3.458-2.275-8.111-1.317-10.388,2.144c-16.831,25.582-45.135,40.854-75.712,40.854
		c-37.475,0-70.794-22.927-84.325-57.502l76.706-76.708c2.102-2.072,2.866-5.283,1.678-8.184
		c-2.994-7.313-4.512-15.042-4.512-22.974c0-33.465,27.226-60.691,60.69-60.691c27.233,0,52.413,13.638,70.903,38.402
		c18.851,25.249,29.233,59.767,29.233,97.197C420.717,271.889,353.259,339.346,270.343,339.346z"/>
</g>
<g>
</g>
<g>
</g>
<g>
</g>
<g>
</g>
<g>
</g>
<g>
</g>
<g>
</g>
<g>
</g>
<g>
</g>
<g>
</g>
<g>
</g>
<g>
</g>
<g>
</g>
<g>
</g>
<g>
</g>
</svg>
