<?xml version="1.0" encoding="iso-8859-1"?>
<!-- Generator: Adobe Illustrator 17.1.0, SVG Export Plug-In . SVG Version: 6.00 Build 0)  -->
<!DOCTYPE svg PUBLIC "-//W3C//DTD SVG 1.1//EN" "http://www.w3.org/Graphics/SVG/1.1/DTD/svg11.dtd">
<svg version="1.1" id="Capa_1" xmlns="http://www.w3.org/2000/svg" xmlns:xlink="http://www.w3.org/1999/xlink" x="0px" y="0px"
	 viewBox="0 0 470.052 470.052" style="enable-background:new 0 0 470.052 470.052;" xml:space="preserve">
<g>
	<path d="M220.552,353.837l-15.978,15.978L100.236,265.478l15.978-15.978c2.929-2.929,2.929-7.678,0-10.606
		c-2.929-2.929-7.678-2.929-10.606,0l-43.022,43.022c-21.855,21.855-30.629,51.989-25.375,87.144
		c2.763,18.485,8.673,33.667,12.002,41.173l-18.239,18.239c-2.929,2.929-2.929,7.678,0,10.606c1.464,1.464,3.384,2.197,5.303,2.197
		s3.839-0.732,5.303-2.197l18.239-18.239c7.506,3.329,22.688,9.239,41.172,12.002c6.628,0.991,13.072,1.483,19.322,1.482
		c26.897-0.001,50.088-9.123,67.822-26.857l43.022-43.022c2.929-2.929,2.929-7.678,0-10.606
		C228.23,350.909,223.48,350.909,220.552,353.837z M103.622,418.066c-18.87-2.758-34.295-9.33-39.761-11.875
		c-2.548-5.473-9.118-20.895-11.875-39.761c-2.027-13.869-1.65-26.568,1.096-38.041l88.582,88.582
		C130.191,419.718,117.492,420.095,103.622,418.066z M177.529,396.86c-6.072,6.072-12.828,10.912-20.235,14.53l-98.632-98.632
		c3.618-7.407,8.458-14.163,14.529-20.235l16.438-16.438l104.337,104.337L177.529,396.86z"/>
	<path d="M155.834,232.223c-2.929-2.929-7.678-2.929-10.606,0c-2.929,2.929-2.929,7.678,0,10.606l81.995,81.995
		c1.464,1.464,3.384,2.197,5.303,2.197s3.839-0.732,5.303-2.197c2.929-2.929,2.929-7.678,0-10.606L155.834,232.223z"/>
	<path d="M254.821,260.466c1.919,0,3.839-0.732,5.303-2.197c2.929-2.929,2.929-7.678,0-10.606l-37.734-37.734
		c-2.929-2.929-7.678-2.929-10.606,0c-2.929,2.929-2.929,7.678,0,10.606l37.734,37.734
		C250.982,259.733,252.901,260.466,254.821,260.466z"/>
	<path d="M463.018,353.877c-4.161-9.475-10.152-18.276-17.327-25.454l-89.552-89.552c9.706-12.071,14.988-26.964,14.988-42.674
		c0-3.711-0.309-7.373-0.886-10.967c5.717,2.865,12.06,4.39,18.641,4.39c11.134,0,21.602-4.335,29.474-12.208
		c16.252-16.252,16.252-42.696,0-58.948l-12.734-12.734l21.553-21.553c2.929-2.929,2.929-7.678,0-10.606
		c-2.929-2.929-7.678-2.929-10.606,0l-21.553,21.553l-20.087-20.087l21.553-21.553c2.929-2.929,2.929-7.678,0-10.606
		c-2.928-2.929-7.677-2.929-10.606,0L364.322,64.43l-12.734-12.734c-7.873-7.873-18.34-12.208-29.474-12.208
		c-11.133,0-21.601,4.335-29.474,12.208c-7.873,7.873-12.208,18.34-12.208,29.474c0,6.581,1.526,12.924,4.39,18.641
		c-3.594-0.577-7.256-0.886-10.967-0.886c-15.711,0-30.603,5.283-42.674,14.988l-89.553-89.554
		c-7.177-7.173-15.979-13.165-25.454-17.325c-10.59-4.65-21.781-7.008-33.261-7.008c-32.879,0-62.663,19.448-75.879,49.547
		C-1.861,69.83-2.335,92.339,5.7,112.953c8.034,20.614,23.615,36.865,43.872,45.759c0.542,0.238,1.088,0.471,1.639,0.698
		c1.016,33.146,27.359,60.643,61.067,62.469c1.167,0.063,2.345,0.095,3.504,0.095c6.875,0,13.723-1.128,20.35-3.354l136.721-45.799
		c2.81-0.387,5.198-2.347,6.097-5.085c0.952-2.674,0.322-5.732-1.764-7.817l-35.322-35.322c9.177-6.922,20.293-10.673,31.99-10.673
		c14.229,0,27.606,5.541,37.667,15.602l29.003,29.003c10.061,10.061,15.602,23.438,15.602,37.667
		c0,11.696-3.751,22.813-10.673,31.99l-35.322-35.322c-2.085-2.084-5.144-2.716-7.816-1.764c-2.739,0.899-4.699,3.287-5.086,6.098
		l-45.798,136.716c-2.601,7.748-3.698,15.775-3.26,23.859c1.821,33.6,29.083,60.061,62.47,61.068
		c0.227,0.55,0.459,1.096,0.697,1.637c13.215,30.096,42.999,49.544,75.878,49.547c11.482,0,22.672-2.358,33.261-7.008
		c20.258-8.895,35.839-25.146,43.873-45.76C472.387,396.644,471.913,374.135,463.018,353.877z M19.675,107.505
		c-6.579-16.881-6.191-35.313,1.093-51.902c10.824-24.65,35.217-40.577,62.145-40.577c9.391,0,18.553,1.932,27.23,5.742
		c7.787,3.419,15.007,8.33,20.879,14.199l121.766,121.766l-192.35-9.865c-1.7-0.593-3.292-1.213-4.835-1.89
		C39.014,137.694,26.255,124.386,19.675,107.505z M131.364,204.399c-6.025,2.022-12.006,2.84-18.274,2.502
		c-24.755-1.342-44.332-20.717-46.67-44.707l165.582,8.492L131.364,204.399z M407.75,129.071c5.04,5.04,7.815,11.74,7.815,18.868
		c0,7.127-2.775,13.828-7.815,18.867s-11.74,7.815-18.868,7.815s-13.828-2.775-18.868-7.815l-12.734-12.734l37.735-37.735
		L407.75,129.071z M384.409,105.73l-37.735,37.735l-20.087-20.087l37.735-37.735L384.409,105.73z M303.246,62.302
		c5.04-5.04,11.74-7.815,18.867-7.815c7.127,0,13.828,2.775,18.868,7.815l12.734,12.734l-37.735,37.735l-12.734-12.734
		c-5.04-5.04-7.815-11.74-7.815-18.868S298.207,67.342,303.246,62.302z M450.376,411.811c-6.58,16.881-19.339,30.189-35.928,37.473
		c-8.678,3.811-17.837,5.742-27.225,5.742c-26.934-0.002-51.328-15.93-62.151-40.578c-0.677-1.542-1.297-3.134-1.889-4.834
		l-4.631-90.29c-0.212-4.137-3.722-7.322-7.875-7.106c-4.137,0.212-7.318,3.738-7.106,7.875l4.285,83.549
		c-24.128-2.31-43.369-21.981-44.707-46.68c-0.339-6.27,0.479-12.247,2.504-18.278l33.711-100.634l2.671,52.082
		c0.206,4.006,3.518,7.116,7.484,7.116c0.129,0,0.26-0.003,0.391-0.01c4.137-0.212,7.318-3.738,7.106-7.875l-3.698-72.099
		l121.765,121.765c5.871,5.873,10.781,13.093,14.2,20.879C456.568,376.497,456.956,394.93,450.376,411.811z"/>
</g>
<g>
</g>
<g>
</g>
<g>
</g>
<g>
</g>
<g>
</g>
<g>
</g>
<g>
</g>
<g>
</g>
<g>
</g>
<g>
</g>
<g>
</g>
<g>
</g>
<g>
</g>
<g>
</g>
<g>
</g>
</svg>
