<?xml version="1.0" encoding="iso-8859-1"?>
<!-- Generator: Adobe Illustrator 19.0.0, SVG Export Plug-In . SVG Version: 6.00 Build 0)  -->
<svg version="1.1" id="Layer_1" xmlns="http://www.w3.org/2000/svg" xmlns:xlink="http://www.w3.org/1999/xlink" x="0px" y="0px"
	 viewBox="0 0 512 512" style="enable-background:new 0 0 512 512;" xml:space="preserve">
<g transform="translate(1 1)">
	<g>
		<g>
			<path d="M314.733,67.267c-18.773,0-34.133,15.36-34.133,34.133c0,18.773,15.36,34.133,34.133,34.133
				c18.773,0,34.133-15.36,34.133-34.133C348.867,82.627,333.507,67.267,314.733,67.267z M314.733,118.467
				c-9.387,0-17.067-7.68-17.067-17.067c0-9.387,7.68-17.067,17.067-17.067S331.8,92.013,331.8,101.4
				C331.8,110.787,324.12,118.467,314.733,118.467z"/>
			<path d="M314.733,152.6c-18.773,0-34.133,15.36-34.133,34.133c0,18.773,15.36,34.133,34.133,34.133
				c18.773,0,34.133-15.36,34.133-34.133C348.867,167.96,333.507,152.6,314.733,152.6z M314.733,203.8
				c-9.387,0-17.067-7.68-17.067-17.067s7.68-17.067,17.067-17.067s17.067,7.68,17.067,17.067S324.12,203.8,314.733,203.8z"/>
			<path d="M314.733,237.933c-18.773,0-34.133,15.36-34.133,34.133c0,18.773,15.36,34.133,34.133,34.133
				c18.773,0,34.133-15.36,34.133-34.133C348.867,253.293,333.507,237.933,314.733,237.933z M314.733,289.133
				c-9.387,0-17.067-7.68-17.067-17.067S305.347,255,314.733,255s17.067,7.68,17.067,17.067S324.12,289.133,314.733,289.133z"/>
			<path d="M408.6,92.867c5.12,0,8.533-3.413,8.533-8.533c0-5.12-3.413-8.533-8.533-8.533c-9.676,0-18.51,3.08-25.6,8.33V52.76
				c0-11.093-8.533-19.627-19.627-19.627h-23.04V16.067H408.6c5.12,0,8.533-3.413,8.533-8.533S413.72-1,408.6-1h-68.267h-51.2H229.4
				c-52.053,0-93.867,41.813-93.867,93.867v298.667h-5.973c-11.093,0-19.627,8.533-19.627,19.627v48.813
				c-9.816,1.203-17.067,9.232-17.067,19.453V511h102.4v-31.573c0-10.221-7.251-18.251-17.067-19.453V411.16
				c0-11.093-8.533-19.627-19.627-19.627H152.6V92.867c0-42.667,34.133-76.8,76.8-76.8h59.733v17.067h-23.04
				c-11.093,0-19.627,8.533-19.627,19.627v31.37c-7.09-5.25-15.924-8.33-25.6-8.33c-5.12,0-8.533,3.413-8.533,8.533
				c0,5.12,3.413,8.533,8.533,8.533c14.507,0,25.6,11.093,25.6,25.6v50.997c-7.09-5.25-15.924-8.33-25.6-8.33
				c-5.12,0-8.533,3.413-8.533,8.533s3.413,8.533,8.533,8.533c14.507,0,25.6,11.093,25.6,25.6v50.997
				c-7.09-5.25-15.924-8.33-25.6-8.33c-5.12,0-8.533,3.413-8.533,8.533s3.413,8.533,8.533,8.533c14.507,0,25.6,11.093,25.6,25.6
				v31.573c0,11.093,8.533,19.627,19.627,19.627h97.28c11.093,0,19.627-8.533,19.627-19.627v-31.573c0-14.507,11.093-25.6,25.6-25.6
				c5.12,0,8.533-3.413,8.533-8.533s-3.413-8.533-8.533-8.533c-9.676,0-18.51,3.08-25.6,8.33V203.8c0-14.507,11.093-25.6,25.6-25.6
				c5.12,0,8.533-3.413,8.533-8.533s-3.413-8.533-8.533-8.533c-9.676,0-18.51,3.08-25.6,8.33v-50.997
				C383,103.96,394.093,92.867,408.6,92.867z M178.2,493.933h-68.267v-14.507c0-1.707,0.853-2.56,2.56-2.56h63.147
				c1.707,0,2.56,0.853,2.56,2.56V493.933z M161.133,411.16v48.64H127v-48.64c0-1.707,0.853-2.56,2.56-2.56h29.013
				C160.28,408.6,161.133,409.453,161.133,411.16z M306.2,16.067h17.067v17.067H306.2V16.067z M365.933,320.707
				c0,1.707-0.853,2.56-2.56,2.56h-97.28c-1.707,0-2.56-0.853-2.56-2.56V52.76c0-1.707,0.853-2.56,2.56-2.56h23.04h51.2h23.04
				c1.707,0,2.56,0.853,2.56,2.56V320.707z"/>
		</g>
	</g>
</g>
<g>
</g>
<g>
</g>
<g>
</g>
<g>
</g>
<g>
</g>
<g>
</g>
<g>
</g>
<g>
</g>
<g>
</g>
<g>
</g>
<g>
</g>
<g>
</g>
<g>
</g>
<g>
</g>
<g>
</g>
</svg>
