<?xml version="1.0" encoding="iso-8859-1"?>
<!-- Generator: Adobe Illustrator 19.0.0, SVG Export Plug-In . SVG Version: 6.00 Build 0)  -->
<svg version="1.1" id="Layer_1" xmlns="http://www.w3.org/2000/svg" xmlns:xlink="http://www.w3.org/1999/xlink" x="0px" y="0px"
	 viewBox="0 0 511.998 511.998" style="enable-background:new 0 0 511.998 511.998;" xml:space="preserve">
<g>
	<g>
		<path d="M503.013,115.143c-5.889-8.52-14.11-14.934-23.777-18.547c-4.05-1.516-8.568,0.542-10.084,4.596
			c-1.515,4.054,0.543,8.569,4.596,10.084c6.651,2.487,12.311,6.905,16.376,12.784c4.116,5.943,6.26,12.934,6.201,20.207
			c-0.115,12.394-10.409,22.476-22.946,22.476h-2.785c-5.799-2.197-27.635-9.914-53.323-12.006
			c-40.467-3.301-70.712,9.124-87.459,35.916c-4.033,6.448-8.02,13.456-11.772,20.328c-2.117-1.52-4.941-1.957-7.532-0.901
			c-4.008,1.634-5.932,6.208-4.297,10.216l45.583,111.773c0.008,0.02,0.016,0.039,0.023,0.057l11.105,27.232
			c1.239,3.039,4.168,4.88,7.259,4.88c0.985,0,1.987-0.187,2.956-0.582c4.008-1.634,5.932-6.208,4.297-10.216l-10.003-24.528
			c6.816-18.201,10.277-37.355,10.277-56.99V239.26c0-17.878,14.516-32.423,32.36-32.423h34.679c0.434,0,0.865-0.01,1.294-0.031
			c0.138-0.006,0.275-0.022,0.413-0.03c0.289-0.019,0.579-0.036,0.866-0.064c0.165-0.016,0.327-0.041,0.492-0.061
			c0.256-0.029,0.514-0.056,0.768-0.094c0.17-0.025,0.338-0.058,0.506-0.087c0.246-0.042,0.493-0.079,0.737-0.128
			c0.164-0.032,0.326-0.073,0.489-0.109c0.245-0.053,0.49-0.103,0.732-0.163c0.177-0.044,0.35-0.096,0.525-0.143
			c0.225-0.061,0.45-0.118,0.673-0.184c0.182-0.054,0.359-0.117,0.539-0.175c0.213-0.068,0.427-0.134,0.637-0.208
			c0.174-0.062,0.346-0.131,0.518-0.195c0.211-0.079,0.424-0.156,0.633-0.24c0.172-0.07,0.341-0.147,0.512-0.22
			c0.205-0.088,0.411-0.173,0.612-0.266c0.17-0.078,0.336-0.164,0.504-0.247c0.198-0.096,0.398-0.19,0.592-0.292
			c0.165-0.086,0.325-0.178,0.488-0.267c0.194-0.107,0.39-0.209,0.58-0.32c0.16-0.092,0.316-0.192,0.473-0.288
			c0.188-0.114,0.378-0.226,0.563-0.346c0.157-0.101,0.309-0.209,0.464-0.313c0.181-0.121,0.363-0.24,0.54-0.367
			c0.149-0.106,0.293-0.217,0.44-0.327c0.179-0.133,0.358-0.262,0.533-0.399c0.142-0.111,0.279-0.228,0.418-0.342
			c0.173-0.141,0.348-0.28,0.517-0.425c0.139-0.12,0.274-0.245,0.411-0.368c0.163-0.147,0.329-0.29,0.489-0.442
			c0.134-0.126,0.262-0.258,0.394-0.387c0.157-0.154,0.315-0.305,0.468-0.463c0.128-0.132,0.251-0.27,0.376-0.404
			c0.149-0.161,0.301-0.32,0.446-0.484c0.123-0.139,0.24-0.283,0.36-0.425c0.14-0.166,0.283-0.329,0.419-0.498
			c0.119-0.148,0.232-0.301,0.348-0.451c0.131-0.169,0.262-0.336,0.39-0.508c0.113-0.155,0.221-0.315,0.331-0.472
			c0.121-0.174,0.246-0.346,0.364-0.522c0.107-0.16,0.207-0.325,0.309-0.487c0.114-0.18,0.23-0.357,0.34-0.54
			c0.099-0.166,0.193-0.336,0.288-0.505c0.106-0.184,0.212-0.367,0.313-0.554c0.093-0.173,0.18-0.35,0.27-0.526
			c0.095-0.187,0.192-0.372,0.283-0.561c0.087-0.181,0.167-0.367,0.25-0.55c0.086-0.188,0.172-0.375,0.253-0.566
			c0.08-0.189,0.154-0.382,0.229-0.574c0.075-0.189,0.153-0.376,0.223-0.567c0.073-0.197,0.139-0.398,0.207-0.598
			c0.065-0.19,0.132-0.378,0.192-0.569c0.066-0.207,0.123-0.416,0.183-0.624c0.054-0.189,0.112-0.376,0.162-0.566
			c0.056-0.215,0.106-0.433,0.157-0.649c0.045-0.188,0.092-0.375,0.133-0.565c0.048-0.223,0.087-0.448,0.13-0.673
			c0.034-0.187,0.073-0.372,0.103-0.56c0.038-0.231,0.068-0.465,0.099-0.697c0.025-0.185,0.053-0.37,0.075-0.556
			c0.027-0.238,0.046-0.479,0.067-0.719c0.014-0.155,0.032-0.307,0.043-0.463h2.466c21.099,0,38.423-17.048,38.619-38.012
			C512.084,133.872,508.975,123.751,503.013,115.143z M455.417,178.892c-0.017,0.133-0.04,0.264-0.052,0.399
			c-0.04,0.429-0.063,0.862-0.063,1.298c0,5.831-4.734,10.574-10.553,10.574h-34.679v0c-26.486,0-48.034,21.576-48.034,48.097
			v32.664c0,11.574-1.33,22.962-3.961,34.043l-31.615-77.525c5.065-9.589,10.844-20.206,16.642-29.478
			c13.585-21.733,37.991-31.365,72.551-28.632c15.911,1.259,30.491,4.981,39.856,7.856
			C455.467,178.42,455.445,178.656,455.417,178.892z"/>
	</g>
</g>
<g>
	<g>
		<path d="M368.514,45.947c-16.421,0-29.78,13.374-29.78,29.812c0,16.438,13.359,29.812,29.78,29.812s29.78-13.374,29.78-29.812
			C398.293,59.32,384.934,45.947,368.514,45.947z M368.514,89.897c-7.778,0-14.106-6.343-14.106-14.139
			c0-7.796,6.328-14.138,14.106-14.138s14.106,6.343,14.106,14.138C382.62,83.554,376.293,89.897,368.514,89.897z"/>
	</g>
</g>
<g>
	<g>
		<circle cx="372.955" cy="78.116" r="7.837"/>
	</g>
</g>
<g>
	<g>
		<circle cx="201.853" cy="128.992" r="7.837"/>
	</g>
</g>
<g>
	<g>
		<circle cx="125.043" cy="212.343" r="7.837"/>
	</g>
</g>
<g>
	<g>
		<circle cx="149.87" cy="162.679" r="7.837"/>
	</g>
</g>
<g>
	<g>
		<circle cx="245.029" cy="176.012" r="7.837"/>
	</g>
</g>
<g>
	<g>
		<circle cx="189.618" cy="217.808" r="7.837"/>
	</g>
</g>
<g>
	<g>
		<circle cx="256" cy="125.659" r="7.837"/>
	</g>
</g>
<g>
	<g>
		<circle cx="197.454" cy="176.012" r="7.837"/>
	</g>
</g>
<g>
	<g>
		<path d="M425.835,427.798h-18.076l-13.033-31.956c-1.633-4.008-6.209-5.93-10.215-4.298c-4.008,1.634-5.932,6.208-4.297,10.216
			l15.021,36.834c1.202,2.95,4.071,4.878,7.256,4.878h23.343c12.841,0,23.288,10.468,23.288,23.334v2.875h-71.987l-61.722-79.551
			c-0.017-0.022-0.03-0.046-0.047-0.068c-0.022-0.029-0.047-0.054-0.07-0.083l-70.117-90.37c-2.654-3.419-7.577-4.04-10.995-1.388
			c-3.419,2.654-4.041,7.577-1.388,10.995l14.531,18.729c-10.079,10.635-20.124,17.862-30.422,21.851
			c-3.31-16.645-10.44-32.236-21.123-45.891c-2.669-3.409-7.594-4.009-11.001-1.344c-3.41,2.667-4.01,7.592-1.344,11.001
			c13.038,16.665,19.928,36.695,19.928,57.923c0,43.216-28.929,72.742-29.209,73.023c-2.25,2.238-2.929,5.612-1.718,8.545
			c1.21,2.934,4.071,4.847,7.244,4.847h63.175c3.988,0,7.235,3.256,7.235,7.257v4.522H145.441
			c-48.985,0-84.498-10.502-105.55-31.216c-16.01-15.751-23.918-37.189-24.192-65.47c0.023-2.391,0.083-4.927,0.185-7.739
			c3.214-48.936,43.98-87.766,93.635-87.766c14.679,0,28.732,3.297,41.769,9.797c3.873,1.931,8.578,0.357,10.51-3.516
			s0.357-8.579-3.516-10.511c-15.228-7.594-31.635-11.445-48.763-11.445c-34.065,0-64.545,15.657-84.647,40.159
			c13.293-52.94,40.673-101.59,79.97-140.947c57.499-57.58,133.936-89.293,215.23-89.293h8.714c3.536,0,6.634-2.368,7.562-5.779
			c3.786-13.916,16.493-23.635,30.901-23.635c17.659,0,32.026,14.4,32.026,32.099c0,0.988-0.038,1.836-0.116,2.592
			c-0.365,3.543,1.705,6.887,5.04,8.14l21.661,8.14c4.046,1.522,8.569-0.528,10.092-4.579c1.522-4.051-0.528-8.57-4.58-10.093
			l-16.464-6.187c-1.043-25.425-22.021-45.786-47.658-45.786c-19.403,0-36.734,11.831-44.046,29.414h-3.13
			c-85.485,0-165.862,33.346-226.322,93.896C36.45,207.343,3.24,283.525,0.23,364.478C0.084,366.797,0,369.131,0,371.487
			c0,0.473,0.022,0.931,0.026,1.4c-0.001,0.163-0.004,0.331-0.005,0.493C0.01,374.46,0,375.53,0,376.612
			c0,2.682,0.184,5.355,0.545,7.942c0.004,0.032,0.014,0.064,0.018,0.096c2.295,26.878,11.784,48.705,28.333,64.987
			c24.09,23.7,63.3,35.717,116.544,35.717h108.641c6.443,0,11.684-5.244,11.684-11.69v-8.505c0-12.644-10.277-22.93-22.908-22.93
			h-46.801c1.634-2.351,3.356-4.997,5.091-7.907h14.413c33.28,0,64.935-9.898,92.041-28.691l57.121,73.62
			c2.626,3.83,6.928,6.102,11.589,6.102h74.422c7.753,0,14.061-6.312,14.061-14.071v-4.477
			C464.796,445.297,447.318,427.798,425.835,427.798z M215.561,418.648h-6.42c5.565-12.977,9.898-28.928,9.898-47.161
			c0-1.928-0.066-3.843-0.163-5.752c13.238-4.322,25.827-12.66,38.164-25.269l40.938,52.763
			C273.659,409.88,245.331,418.648,215.561,418.648z"/>
	</g>
</g>
<g>
</g>
<g>
</g>
<g>
</g>
<g>
</g>
<g>
</g>
<g>
</g>
<g>
</g>
<g>
</g>
<g>
</g>
<g>
</g>
<g>
</g>
<g>
</g>
<g>
</g>
<g>
</g>
<g>
</g>
</svg>
