<?xml version="1.0" encoding="iso-8859-1"?>
<!-- Generator: Adobe Illustrator 19.0.0, SVG Export Plug-In . SVG Version: 6.00 Build 0)  -->
<svg version="1.1" id="Capa_1" xmlns="http://www.w3.org/2000/svg" xmlns:xlink="http://www.w3.org/1999/xlink" x="0px" y="0px"
	 viewBox="0 0 512 512" style="enable-background:new 0 0 512 512;" xml:space="preserve">
<g>
	<g>
		<path d="M79.646,284.572c-4.143,0-7.5,3.357-7.5,7.5v4.009c0,6.915-5.626,12.54-12.541,12.54c-6.915,0-12.54-5.625-12.54-12.54
			v-8.017c0-6.915,5.625-12.54,12.54-12.54c4.143,0,7.5-3.357,7.5-7.5s-3.357-7.5-7.5-7.5c-15.186,0-27.54,12.354-27.54,27.54v8.017
			c0,15.186,12.354,27.54,27.54,27.54c15.187,0,27.541-12.354,27.541-27.54v-4.009C87.146,287.929,83.789,284.572,79.646,284.572z"
			/>
	</g>
</g>
<g>
	<g>
		<path d="M508.496,293.742c-43.508-27.394-90.229-48.277-139.307-62.315l-16.575-45.384c-2.953-7.785-9.608-13.321-17.801-14.808
			c-8.195-1.491-16.368,1.356-21.867,7.607l-30.949,35.169C168.653,200.677,83.161,224.92,68.02,229.621
			c-3.946-0.762-8.093-1.161-12.424-1.161c-1.026,0-2.041,0.023-3.046,0.066c-7.872-18.931-15.176-44.944-9.942-68.909
			c3.279-15.018,10.096-22.37,10.32-22.609c2.885-2.932,2.869-7.647-0.044-10.562c-2.93-2.928-7.678-2.928-10.607,0
			c-1.316,1.316-29.035,30.077-9.564,91.563C24.55,207.267,15,189.27,15,163.814c0-35.914,13.755-50.725,13.836-50.81
			c2.929-2.93,2.929-7.678,0-10.607c-2.93-2.928-7.678-2.928-10.607,0C17.484,103.143,0,121.118,0,163.814
			c0,36.804,17.339,60.489,27.648,71.318c-4.251,2.33-8.1,5.243-11.466,8.742C5.444,255.036,0,271.252,0,292.072
			c0,20.334,5.867,41.794,16.096,58.876c10.955,18.293,25.353,28.785,39.501,28.785c10.389,0,20.911-5.663,30.107-15.912
			c1.574,0.345,4.425,0.954,8.435,1.745L75.55,396.547c-0.094,0.155-0.264,0.252-0.443,0.252H31.549c-4.143,0-7.5,3.357-7.5,7.5
			s3.357,7.5,7.5,7.5h43.558c5.418,0,10.517-2.887,13.306-7.534l21.481-35.802c5.394,0.928,11.542,1.924,18.365,2.934v24.885
			c0,0.285-0.231,0.517-0.516,0.517H111.71c-4.143,0-7.5,3.357-7.5,7.5s3.357,7.5,7.5,7.5h16.032
			c8.556,0,15.516-6.961,15.516-15.517v-22.8c6.083,0.792,12.55,1.566,19.345,2.299c4.872,3.371,11.71,7.528,19.594,10.681
			c8.122,3.249,15.852,4.864,23.089,4.864c10.878,0,20.637-3.66,28.922-10.904c5.162,0.104,10.281,0.168,15.336,0.168
			c57.341,0,107.773-6.739,150.808-20.109l13.095,35.857c3.377,9.248,12.26,15.461,22.104,15.461h44.899c4.143,0,7.5-3.357,7.5-7.5
			s-3.357-7.5-7.5-7.5h-44.899c-3.569,0-6.79-2.253-8.015-5.606l-12.957-35.477c17.289-6.211,33.284-13.57,47.931-22.088
			c2.117-1.231,3.499-3.418,3.703-5.858c0.204-2.44-0.796-4.827-2.679-6.393l-13.41-11.149c18.163-0.629,36.465-1.505,54.842-2.653
			c3.248-0.203,5.995-2.478,6.8-5.632C512.571,298.789,511.25,295.477,508.496,293.742z M347.317,215.26l4.172,11.426
			c-3.339-0.834-6.69-1.634-10.049-2.406C343.603,220.963,345.571,217.942,347.317,215.26z M224.809,225.209
			c14.377,0.241,29.449,1.048,45.065,2.581l-52.625,59.8c-35.042-3.88-62.318-8.402-81.106-12.037
			c8.002-2.303,16.918-5.086,25.941-8.316C198.307,254.27,218.928,240.467,224.809,225.209z M207.587,225.182
			c-14.006,16.95-62.081,33.764-99.513,42.229c-2.664-9.389-7.027-17.262-13.063-23.536c-1.594-1.657-3.303-3.172-5.103-4.569
			C112.868,233.811,154.74,225.898,207.587,225.182z M82.229,343.241c-8.059,13.458-18.015,21.492-26.632,21.492
			s-18.573-8.034-26.632-21.492C20.09,328.421,15,309.771,15,292.072c0-31.348,14.418-48.612,40.597-48.612
			c26.179,0,40.597,17.265,40.597,48.612C96.194,309.77,91.104,328.421,82.229,343.241z M111.175,353.444
			c-6.552-1.139-11.896-2.158-15.822-2.942c10.068-17.009,15.84-38.27,15.84-58.43c0-2.217-0.075-4.371-0.198-6.483
			c7.937,1.858,20.881,4.645,38.722,7.721C144.912,304.357,132.592,329.516,111.175,353.444z M153.841,359.685
			c-9.216-1.108-17.706-2.28-25.322-3.43c21.5-26.136,32.871-51.628,36.438-60.448c11.803,1.838,25.208,3.713,40.22,5.5
			C205.178,301.307,153.917,359.585,153.841,359.685z M226.559,367.02c-9.798,10.137-22.383,11.982-38.477,5.64
			c-6.987-2.754-13.126-6.55-17.35-9.505l153.475-174.403c2.874-3.267,6.502-3.015,7.928-2.758c1.427,0.259,4.911,1.3,6.422,5.282
			l2.323,6.361C311.353,243.128,237.536,355.665,226.559,367.02z M346.356,357.841c-30.421,5.265-63.904,7.854-99.697,7.734
			c9.468-12.98,23.932-34.197,39.278-57.13c16.372,0.984,33.174,1.735,50.007,2.22c0.073,0.002,0.146,0.003,0.22,0.003
			c4.042,0,7.376-3.217,7.493-7.284c0.119-4.141-3.141-7.594-7.281-7.713c-13.69-0.394-27.358-0.967-40.789-1.696
			c13.2-19.855,26.404-39.948,37.086-56.276c8.421,1.841,16.781,3.875,25.072,6.118l19.182,52.522
			c-2.878-0.015-5.762-0.024-8.626-0.052c-0.025,0-0.051,0-0.076,0c-4.106,0-7.457,3.309-7.498,7.426
			c-0.041,4.142,3.283,7.532,7.426,7.574c4.731,0.047,9.492,0.062,14.259,0.07l12.76,34.938
			C379.888,350.993,363.601,354.856,346.356,357.841z M409.413,341.566l-11.046-30.245c9.633-0.068,19.332-0.215,29.083-0.437
			l18.049,15.005C434.304,331.752,422.251,336.976,409.413,341.566z M392.9,296.351l-17.294-47.352
			c36.184,11.176,71,26.206,104.07,44.977C450.368,295.445,421.338,296.235,392.9,296.351z"/>
	</g>
</g>
<g>
</g>
<g>
</g>
<g>
</g>
<g>
</g>
<g>
</g>
<g>
</g>
<g>
</g>
<g>
</g>
<g>
</g>
<g>
</g>
<g>
</g>
<g>
</g>
<g>
</g>
<g>
</g>
<g>
</g>
</svg>
