<?xml version="1.0" encoding="iso-8859-1"?>
<!-- Generator: Adobe Illustrator 18.0.0, SVG Export Plug-In . SVG Version: 6.00 Build 0)  -->
<!DOCTYPE svg PUBLIC "-//W3C//DTD SVG 1.1//EN" "http://www.w3.org/Graphics/SVG/1.1/DTD/svg11.dtd">
<svg version="1.1" id="Capa_1" xmlns="http://www.w3.org/2000/svg" xmlns:xlink="http://www.w3.org/1999/xlink" x="0px" y="0px"
	 viewBox="0 0 445.763 445.763" style="enable-background:new 0 0 445.763 445.763;" xml:space="preserve">
<g>
	<path d="M439.028,383.481c-6.392,5.986-16.406,5.987-22.8,0c-9.46-8.86-24.279-8.859-33.737,0c-6.393,5.987-16.407,5.987-22.8,0
		c-9.458-8.859-24.278-8.86-33.736,0c-6.393,5.986-16.409,5.986-22.8,0c-9.459-8.86-24.278-8.859-33.737,0
		c-6.393,5.986-16.407,5.987-22.8,0c-9.458-8.859-24.277-8.86-33.737,0c-6.393,5.988-16.407,5.987-22.8,0
		c-9.458-8.86-24.277-8.859-33.737,0c-6.393,5.987-16.406,5.987-22.799,0c-9.459-8.859-24.278-8.859-33.737,0
		c-6.393,5.986-16.407,5.987-22.8,0c-9.458-8.859-24.277-8.86-33.737,0c-6.393,5.986-16.407,5.987-22.8,0
		c-1.612-1.511-4.143-1.428-5.654,0.185c-1.51,1.612-1.427,4.143,0.186,5.654c9.459,8.86,24.278,8.858,33.737,0
		c6.392-5.987,16.406-5.988,22.8,0c9.458,8.858,24.277,8.86,33.737,0c6.393-5.987,16.407-5.987,22.8,0
		c9.457,8.858,24.277,8.859,33.736,0c6.392-5.987,16.408-5.987,22.8,0c9.459,8.858,24.278,8.86,33.737,0
		c6.394-5.987,16.408-5.986,22.8,0c9.46,8.86,24.279,8.858,33.737,0c6.392-5.987,16.406-5.988,22.8,0
		c9.458,8.859,24.277,8.859,33.737,0c6.393-5.987,16.406-5.987,22.799,0c9.459,8.859,24.278,8.859,33.737,0
		c6.391-5.987,16.405-5.988,22.8,0c4.729,4.43,10.799,6.645,16.868,6.645c6.07,0,12.14-2.215,16.869-6.645
		c1.612-1.51,1.695-4.042,0.185-5.654C443.173,382.055,440.643,381.97,439.028,383.481z"/>
	<path d="M439.028,351.384c-6.392,5.986-16.406,5.987-22.8,0c-9.46-8.86-24.279-8.859-33.737,0c-6.393,5.987-16.407,5.987-22.8,0
		c-9.458-8.859-24.278-8.86-33.736,0c-6.393,5.986-16.409,5.986-22.8,0c-9.459-8.86-24.278-8.859-33.737,0
		c-6.393,5.986-16.407,5.987-22.8,0c-9.458-8.859-24.277-8.86-33.737,0c-6.393,5.988-16.407,5.987-22.8,0
		c-9.458-8.86-24.277-8.859-33.737,0c-6.393,5.987-16.406,5.987-22.799,0c-9.459-8.859-24.278-8.859-33.737,0
		c-6.393,5.986-16.407,5.987-22.8,0c-9.458-8.859-24.277-8.86-33.737,0c-6.393,5.986-16.407,5.987-22.8,0
		c-1.612-1.511-4.143-1.428-5.654,0.185c-1.51,1.612-1.427,4.144,0.186,5.654c9.459,8.86,24.278,8.859,33.737,0
		c6.392-5.987,16.406-5.988,22.8,0c9.458,8.859,24.277,8.86,33.737,0c6.393-5.987,16.407-5.987,22.8,0
		c9.457,8.858,24.277,8.859,33.736,0c6.392-5.987,16.408-5.987,22.8,0c9.459,8.859,24.278,8.86,33.737,0
		c6.394-5.987,16.408-5.986,22.8,0c9.46,8.86,24.279,8.859,33.737,0c6.392-5.987,16.406-5.988,22.8,0
		c9.458,8.86,24.277,8.859,33.737,0c6.393-5.987,16.406-5.987,22.799,0c9.459,8.859,24.278,8.859,33.737,0
		c6.391-5.987,16.405-5.988,22.8,0c4.729,4.43,10.799,6.645,16.868,6.645c6.07,0,12.14-2.215,16.869-6.645
		c1.612-1.51,1.695-4.042,0.185-5.654C443.173,349.958,440.643,349.873,439.028,351.384z"/>
	<path d="M156.344,318.683c-6.393,5.987-16.406,5.987-22.799,0c-9.459-8.859-24.278-8.859-33.737,0
		c-6.393,5.986-16.407,5.987-22.8,0c-9.458-8.858-24.277-8.86-33.737,0c-6.393,5.986-16.407,5.987-22.8,0
		c-1.612-1.51-4.143-1.427-5.654,0.185c-1.51,1.612-1.427,4.144,0.186,5.654c9.459,8.86,24.278,8.859,33.737,0
		c6.392-5.987,16.406-5.988,22.8,0c9.458,8.859,24.277,8.86,33.737,0c6.393-5.987,16.407-5.987,22.8,0
		c9.457,8.858,24.277,8.859,33.736,0c6.392-5.987,16.408-5.987,22.8,0c9.459,8.859,24.278,8.86,33.737,0
		c6.394-5.987,16.408-5.986,22.8,0c9.46,8.86,24.279,8.859,33.737,0c6.392-5.987,16.406-5.988,22.8,0
		c9.458,8.86,24.277,8.859,33.737,0c6.393-5.987,16.406-5.987,22.799,0c9.459,8.859,24.278,8.859,33.737,0
		c6.391-5.987,16.405-5.988,22.8,0c4.729,4.43,10.799,6.645,16.868,6.645c6.07,0,12.14-2.215,16.869-6.645
		c1.612-1.51,1.695-4.042,0.185-5.654c-1.509-1.611-4.039-1.696-5.653-0.185c-6.392,5.986-16.406,5.987-22.8,0
		c-9.46-8.86-24.279-8.858-33.737,0c-6.393,5.987-16.407,5.987-22.8,0c-9.458-8.859-24.278-8.86-33.736,0
		c-6.393,5.986-16.409,5.986-22.8,0c-9.459-8.86-24.278-8.858-33.737,0c-6.393,5.986-16.407,5.987-22.8,0
		c-9.458-8.858-24.277-8.86-33.737,0c-6.393,5.988-16.407,5.987-22.8,0C180.623,309.823,165.804,309.823,156.344,318.683z"/>
	<path d="M267.871,226.075c3.344-3.73,8.134-5.87,13.143-5.87s9.799,2.14,13.143,5.87c0.759,0.847,1.842,1.331,2.978,1.331
		c1.137,0,2.22-0.484,2.979-1.331c3.344-3.73,8.134-5.87,13.143-5.87c5.009,0,9.799,2.14,13.143,5.87
		c0.79,0.882,1.883,1.331,2.979,1.331c0.951,0,1.905-0.337,2.668-1.021c1.646-1.474,1.784-4.003,0.31-5.648
		c-4.858-5.422-11.819-8.531-19.1-8.531c-5.899,0-11.59,2.042-16.121,5.702c-4.531-3.66-10.222-5.702-16.121-5.702
		c-7.28,0-14.241,3.109-19.1,8.531c-1.475,1.645-1.336,4.174,0.31,5.648C263.866,227.858,266.397,227.721,267.871,226.075z"/>
	<path d="M345.081,145.137c3.342-3.73,8.132-5.87,13.142-5.87c5.009,0,9.799,2.14,13.141,5.87c0.759,0.847,1.843,1.331,2.979,1.331
		c1.137,0,2.22-0.484,2.978-1.331c3.344-3.731,8.134-5.871,13.144-5.87c5.009,0,9.799,2.14,13.141,5.87
		c0.79,0.882,1.883,1.331,2.98,1.331c0.951,0,1.904-0.337,2.668-1.021c1.646-1.474,1.784-4.003,0.311-5.648
		c-4.858-5.421-11.819-8.531-19.1-8.531c0,0,0,0-0.001,0c-5.899,0-11.59,2.042-16.121,5.701c-4.531-3.66-10.221-5.701-16.12-5.701
		c-7.28,0-14.242,3.109-19.101,8.531c-1.474,1.646-1.335,4.174,0.311,5.648C341.077,146.92,343.607,146.784,345.081,145.137z"/>
	<path d="M99.552,194.29c24.785,0,44.949-20.164,44.949-44.948c0-24.785-20.164-44.949-44.949-44.949
		c-24.784,0-44.948,20.164-44.948,44.949C54.604,174.126,74.768,194.29,99.552,194.29z M99.552,112.393
		c20.374,0,36.949,16.575,36.949,36.949c0,20.374-16.575,36.948-36.949,36.948c-20.373,0-36.948-16.575-36.948-36.948
		C62.604,128.968,79.179,112.393,99.552,112.393z"/>
	<path d="M34.822,219.734l23.552-23.551c1.563-1.562,1.563-4.095,0-5.657c-1.563-1.562-4.096-1.562-5.656,0l-23.552,23.551
		c-1.563,1.562-1.563,4.095,0,5.657c0.781,0.781,1.805,1.171,2.828,1.171C33.018,220.905,34.042,220.515,34.822,219.734z"/>
	<path d="M143.566,109.333c1.023,0,2.048-0.391,2.828-1.171l23.552-23.552c1.563-1.563,1.563-4.095,0-5.657
		c-1.561-1.562-4.096-1.562-5.656,0l-23.552,23.552c-1.563,1.563-1.563,4.095,0,5.657
		C141.519,108.942,142.543,109.333,143.566,109.333z"/>
	<path d="M41.314,149.343c0-2.209-1.791-4-4-4H4c-2.209,0-4,1.791-4,4s1.791,4,4,4h33.314
		C39.523,153.343,41.314,151.552,41.314,149.343z"/>
	<path d="M157.799,149.343c0,2.209,1.791,4,4,4h33.303c2.209,0,4-1.791,4-4s-1.791-4-4-4h-33.303
		C159.59,145.343,157.799,147.134,157.799,149.343z"/>
	<path d="M52.718,108.162c0.78,0.781,1.805,1.171,2.828,1.171c1.024,0,2.048-0.391,2.828-1.171c1.563-1.563,1.563-4.095,0-5.657
		L34.822,78.953c-1.561-1.562-4.096-1.562-5.656,0c-1.563,1.563-1.563,4.095,0,5.657L52.718,108.162z"/>
	<path d="M167.118,220.905c1.023,0,2.048-0.391,2.828-1.171c1.563-1.563,1.563-4.095,0-5.657l-23.552-23.551
		c-1.563-1.562-4.096-1.562-5.656,0c-1.563,1.563-1.563,4.095,0,5.657l23.552,23.551
		C165.071,220.515,166.095,220.905,167.118,220.905z"/>
	<path d="M99.557,91.102c2.209,0,4-1.791,4-4V53.798c0-2.209-1.791-4-4-4s-4,1.791-4,4v33.303
		C95.557,89.311,97.348,91.102,99.557,91.102z"/>
	<path d="M103.557,244.889v-33.303c0-2.209-1.791-4-4-4s-4,1.791-4,4v33.303c0,2.209,1.791,4,4,4S103.557,247.098,103.557,244.889z"
		/>
</g>
<g>
</g>
<g>
</g>
<g>
</g>
<g>
</g>
<g>
</g>
<g>
</g>
<g>
</g>
<g>
</g>
<g>
</g>
<g>
</g>
<g>
</g>
<g>
</g>
<g>
</g>
<g>
</g>
<g>
</g>
</svg>
